# xmcd
#
# Track frame offsets:
#	150
#	13227
#	26044
#	41456
#	55880
#	72662
#	85752
#	96956
#	109861
#	125905
#	143095
#
# Disc length: 2095 seconds
#
# Revision: 0
# Processed by: cddbd v1.4PL0 Copyright (c) Steve Scherf et al.
# Submitted via: EasyCDDAExtractor 4.5.0.2
#
DISCID=9e082d0b
DTITLE=Kelly Willis - Well Travelled Love
DYEAR=1900
DGENRE=Country
TTITLE0=My Heart's In Trouble Tonight
TTITLE1=Hole In My Heart
TTITLE2=I Don't Want To Love You (but I Do)
TTITLE3=Looking For Someone Like You
TTITLE4=Don't Be Afraid
TTITLE5=River Of Love
TTITLE6=I'm Just Lonely
TTITLE7=One More Time
TTITLE8=Drive South
TTITLE9=Well Travelled Love
TTITLE10=Red Sunset
EXTD=
EXTT0=
EXTT1=
EXTT2=
EXTT3=
EXTT4=
EXTT5=
EXTT6=
EXTT7=
EXTT8=
EXTT9=
EXTT10=
PLAYORDER=
